<svg width="24" height="24" viewBox="0 0 24 24" fill="none" xmlns="http://www.w3.org/2000/svg">
<path fill-rule="evenodd" clip-rule="evenodd" d="M11.5962 10.5C10.9908 10.5 10.5 10.9908 10.5 11.5962V19.9038C10.5 20.5092 10.9908 21 11.5962 21H19.9038C20.5092 21 21 20.5092 21 19.9038V11.5962C21 10.9908 20.5092 10.5 19.9038 10.5H11.5962ZM9 11.5962C9 10.1623 10.1623 9 11.5962 9H19.9038C21.3377 9 22.5 10.1623 22.5 11.5962V19.9038C22.5 21.3377 21.3377 22.5 19.9038 22.5H11.5962C10.1623 22.5 9 21.3377 9 19.9038V11.5962Z" fill="#738F93"/>
<path fill-rule="evenodd" clip-rule="evenodd" d="M4.09615 3C3.80544 3 3.52662 3.11549 3.32106 3.32106C3.11549 3.52662 3 3.80544 3 4.09615V12.4038C3 12.6946 3.11549 12.9734 3.32106 13.1789C3.52662 13.3845 3.80544 13.5 4.09615 13.5H5.01923C5.43344 13.5 5.76923 13.8358 5.76923 14.25C5.76923 14.6642 5.43344 15 5.01923 15H4.09615C3.40761 15 2.74727 14.7265 2.2604 14.2396C1.77352 13.7527 1.5 13.0924 1.5 12.4038V4.09615C1.5 3.40761 1.77352 2.74727 2.2604 2.2604C2.74727 1.77352 3.40761 1.5 4.09615 1.5H12.4038C13.0924 1.5 13.7527 1.77352 14.2396 2.2604C14.7265 2.74727 15 3.40761 15 4.09615V5.01923C15 5.43344 14.6642 5.76923 14.25 5.76923C13.8358 5.76923 13.5 5.43344 13.5 5.01923V4.09615C13.5 3.80544 13.3845 3.52662 13.1789 3.32106C12.9734 3.11549 12.6946 3 12.4038 3H4.09615Z" fill="#738F93"/>
</svg>
