<svg width="24" height="24" viewBox="0 0 24 24" fill="none" xmlns="http://www.w3.org/2000/svg">
<path fill-rule="evenodd" clip-rule="evenodd" d="M12 18.75C12 18.3358 12.3358 18 12.75 18H21.75C22.1642 18 22.5 18.3358 22.5 18.75C22.5 19.1642 22.1642 19.5 21.75 19.5H12.75C12.3358 19.5 12 19.1642 12 18.75Z" fill="#097BBF"/>
<path fill-rule="evenodd" clip-rule="evenodd" d="M18.2057 3C17.8624 3 17.5332 3.13637 17.2904 3.3791L5.39093 15.2786L4.78077 17.7192L7.2214 17.1091L19.1209 5.20958C19.2411 5.08938 19.3364 4.9467 19.4015 4.78966C19.4665 4.63262 19.5 4.46431 19.5 4.29434C19.5 4.12436 19.4665 3.95605 19.4015 3.79902C19.3364 3.64198 19.2411 3.49929 19.1209 3.3791C19.0007 3.25891 18.858 3.16357 18.701 3.09853C18.5439 3.03348 18.3756 3 18.2057 3ZM16.2298 2.31844C16.7538 1.7944 17.4646 1.5 18.2057 1.5C18.5726 1.5 18.936 1.57228 19.275 1.71271C19.614 1.85314 19.9221 2.05896 20.1815 2.31844C20.441 2.57792 20.6469 2.88597 20.7873 3.22499C20.9277 3.56402 21 3.92738 21 4.29434C21 4.6613 20.9277 5.02466 20.7873 5.36369C20.6469 5.70271 20.441 6.01076 20.1815 6.27024L8.13517 18.3166C8.03905 18.4127 7.91861 18.4809 7.78674 18.5139L3.93189 19.4776C3.67631 19.5415 3.40595 19.4666 3.21966 19.2803C3.03338 19.094 2.95849 18.8237 3.02239 18.5681L3.9861 14.7133C4.01907 14.5814 4.08725 14.4609 4.18337 14.3648L16.2298 2.31844Z" fill="#097BBF"/>
</svg>
