<svg width="159" height="134" viewBox="0 0 159 134" fill="none" xmlns="http://www.w3.org/2000/svg">
<g filter="url(#filter0_d)">
<rect x="29.1493" y="7.49097" width="119.181" height="96.8623" rx="2.69062" fill="white"/>
</g>
<path d="M146.44 6.92383H31.1949C30.4763 6.92409 29.7873 7.20964 29.2792 7.71771C28.7712 8.22579 28.4856 8.91481 28.4854 9.63333V25.3398H29.5692V9.63333C29.5698 9.20237 29.7413 8.78924 30.046 8.4845C30.3508 8.17976 30.7639 8.00827 31.1949 8.00762H146.44C146.871 8.00826 147.284 8.17975 147.589 8.48449C147.893 8.78923 148.065 9.20237 148.065 9.63333V101.757C148.065 102.188 147.893 102.601 147.589 102.906C147.284 103.211 146.871 103.382 146.44 103.383H130.497V104.466H146.44C147.158 104.466 147.847 104.181 148.355 103.673C148.863 103.164 149.149 102.475 149.149 101.757V9.63333C149.149 8.91481 148.863 8.22579 148.355 7.71771C147.847 7.20964 147.158 6.92409 146.44 6.92383Z" fill="#E7EEEF"/>
<g opacity="0.7" filter="url(#filter1_d)">
<rect x="10.1338" y="24.1001" width="120.181" height="96.8623" rx="2.69062" fill="white"/>
</g>
<path d="M127.954 24.2775H12.7095C11.991 24.2777 11.302 24.5633 10.7939 25.0714C10.2858 25.5794 10.0003 26.2685 10 26.987V119.111C10.0003 119.829 10.2858 120.518 10.7939 121.026C11.302 121.534 11.991 121.82 12.7095 121.82H127.954C128.673 121.82 129.362 121.534 129.87 121.026C130.378 120.518 130.664 119.829 130.664 119.111V26.987C130.664 26.2685 130.378 25.5794 129.87 25.0714C129.362 24.5633 128.673 24.2777 127.954 24.2775ZM129.58 119.111C129.579 119.542 129.408 119.955 129.103 120.259C128.798 120.564 128.385 120.736 127.954 120.736H12.7095C12.2785 120.736 11.8654 120.564 11.5607 120.259C11.256 119.955 11.0845 119.542 11.0838 119.111V26.987C11.0845 26.556 11.2559 26.1429 11.5607 25.8381C11.8654 25.5334 12.2785 25.3619 12.7095 25.3613H127.954C128.385 25.3619 128.798 25.5334 129.103 25.8381C129.408 26.1429 129.579 26.556 129.58 26.987V119.111Z" fill="#E7EEEF"/>
<path d="M70.3321 92C66.3861 92 62.5288 90.8299 59.2478 88.6376C55.9669 86.4454 53.4097 83.3294 51.8996 79.6838C50.3896 76.0382 49.9945 72.0267 50.7643 68.1566C51.5341 64.2864 53.4343 60.7314 56.2245 57.9412C59.0147 55.151 62.5697 53.2508 66.4398 52.481C70.31 51.7112 74.3215 52.1063 77.9671 53.6164C81.6127 55.1264 84.7286 57.6836 86.9209 60.9646C89.1131 64.2455 90.2832 68.1029 90.2832 72.0488C90.2773 77.3384 88.1734 82.4096 84.4331 86.1498C80.6928 89.8901 75.6216 91.994 70.3321 92Z" fill="#B7C9CC"/>
<path d="M78.2042 71.0808H72.3V65.1766C72.3 64.6546 72.0927 64.154 71.7236 63.7849C71.3545 63.4159 70.8539 63.2085 70.3319 63.2085C69.81 63.2085 69.3094 63.4159 68.9403 63.7849C68.5712 64.154 68.3639 64.6546 68.3639 65.1766V71.0808H62.4597C61.9381 71.0814 61.4381 71.289 61.0696 71.658C60.701 72.027 60.494 72.5273 60.494 73.0488C60.494 73.5704 60.701 74.0706 61.0696 74.4396C61.4381 74.8086 61.9381 75.0163 62.4597 75.0169H68.3639V80.9211C68.3639 81.443 68.5712 81.9436 68.9403 82.3127C69.3094 82.6818 69.81 82.8891 70.3319 82.8891C70.8539 82.8891 71.3545 82.6818 71.7236 82.3127C72.0927 81.9436 72.3 81.443 72.3 80.9211V75.0169H78.2042C78.4628 75.0172 78.719 74.9665 78.958 74.8677C79.1971 74.769 79.4143 74.6241 79.5973 74.4413C79.7803 74.2585 79.9255 74.0414 80.0245 73.8025C80.1236 73.5636 80.1746 73.3075 80.1746 73.0488C80.1746 72.7902 80.1236 72.5341 80.0245 72.2951C79.9255 72.0562 79.7803 71.8392 79.5973 71.6564C79.4143 71.4736 79.1971 71.3287 78.958 71.2299C78.719 71.1311 78.4628 71.0805 78.2042 71.0808Z" fill="white"/>
<defs>
<filter id="filter0_d" x="19.1493" y="0.490967" width="139.181" height="116.862" filterUnits="userSpaceOnUse" color-interpolation-filters="sRGB">
<feFlood flood-opacity="0" result="BackgroundImageFix"/>
<feColorMatrix in="SourceAlpha" type="matrix" values="0 0 0 0 0 0 0 0 0 0 0 0 0 0 0 0 0 0 127 0" result="hardAlpha"/>
<feOffset dy="3"/>
<feGaussianBlur stdDeviation="5"/>
<feColorMatrix type="matrix" values="0 0 0 0 0.45098 0 0 0 0 0.560784 0 0 0 0 0.576471 0 0 0 0.3 0"/>
<feBlend mode="normal" in2="BackgroundImageFix" result="effect1_dropShadow"/>
<feBlend mode="normal" in="SourceGraphic" in2="effect1_dropShadow" result="shape"/>
</filter>
<filter id="filter1_d" x="0.133789" y="17.1001" width="140.181" height="116.862" filterUnits="userSpaceOnUse" color-interpolation-filters="sRGB">
<feFlood flood-opacity="0" result="BackgroundImageFix"/>
<feColorMatrix in="SourceAlpha" type="matrix" values="0 0 0 0 0 0 0 0 0 0 0 0 0 0 0 0 0 0 127 0" result="hardAlpha"/>
<feOffset dy="3"/>
<feGaussianBlur stdDeviation="5"/>
<feColorMatrix type="matrix" values="0 0 0 0 0.45098 0 0 0 0 0.560784 0 0 0 0 0.576471 0 0 0 0.3 0"/>
<feBlend mode="normal" in2="BackgroundImageFix" result="effect1_dropShadow"/>
<feBlend mode="normal" in="SourceGraphic" in2="effect1_dropShadow" result="shape"/>
</filter>
</defs>
</svg>
