<svg width="24" height="24" viewBox="0 0 24 24" fill="none" xmlns="http://www.w3.org/2000/svg">
<path fill-rule="evenodd" clip-rule="evenodd" d="M2.25 6.75C2.25 6.33579 2.58579 6 3 6H21C21.4142 6 21.75 6.33579 21.75 6.75C21.75 7.16421 21.4142 7.5 21 7.5H3C2.58579 7.5 2.25 7.16421 2.25 6.75Z" fill="#D11534"/>
<path fill-rule="evenodd" clip-rule="evenodd" d="M10.0714 3.1499C9.76154 3.1499 9.46265 3.27429 9.24097 3.49844C9.01902 3.72286 8.89286 4.02898 8.89286 4.3499V5.99994H15.1071V4.3499C15.1071 4.02898 14.981 3.72286 14.759 3.49844C14.5373 3.27429 14.2385 3.1499 13.9286 3.1499H10.0714ZM16.6071 5.99994V4.3499C16.6071 3.63648 16.3269 2.95062 15.8255 2.44365C15.3239 1.9364 14.6417 1.6499 13.9286 1.6499H10.0714C9.35833 1.6499 8.67614 1.9364 8.17447 2.44365C7.67307 2.95062 7.39286 3.63648 7.39286 4.3499V5.99994H5.24998C5.05106 5.99994 4.8603 6.07896 4.71965 6.21961C4.57899 6.36026 4.49998 6.55103 4.49998 6.74994L4.5 19.9499C4.5 20.6633 4.78021 21.3492 5.28161 21.8562C5.78329 22.3634 6.46548 22.6499 7.17857 22.6499H16.8214C17.5345 22.6499 18.2167 22.3634 18.7184 21.8562C19.2198 21.3492 19.5 20.6633 19.5 19.9499V6.74994C19.5 6.33573 19.1642 5.99994 18.75 5.99994H16.6071ZM5.99998 7.49994L6 19.9499C6 20.2708 6.12616 20.5769 6.34812 20.8014C6.5698 21.0255 6.86869 21.1499 7.17857 21.1499H16.8214C17.1313 21.1499 17.4302 21.0255 17.6519 20.8014C17.8738 20.5769 18 20.2708 18 19.9499V7.49994H5.99998Z" fill="#D11534"/>
<path fill-rule="evenodd" clip-rule="evenodd" d="M9.75 10.2499C10.1642 10.2499 10.5 10.5857 10.5 10.9999V16.9999C10.5 17.4141 10.1642 17.7499 9.75 17.7499C9.33579 17.7499 9 17.4141 9 16.9999V10.9999C9 10.5857 9.33579 10.2499 9.75 10.2499Z" fill="#D11534"/>
<path fill-rule="evenodd" clip-rule="evenodd" d="M14.25 10.2499C14.6642 10.2499 15 10.5857 15 10.9999V16.9999C15 17.4141 14.6642 17.7499 14.25 17.7499C13.8358 17.7499 13.5 17.4141 13.5 16.9999V10.9999C13.5 10.5857 13.8358 10.2499 14.25 10.2499Z" fill="#D11534"/>
</svg>
